<?xml version="1.0" encoding="iso-8859-1"?>
<!-- Generator: Adobe Illustrator 16.0.0, SVG Export Plug-In . SVG Version: 6.00 Build 0)  -->
<!DOCTYPE svg PUBLIC "-//W3C//DTD SVG 1.1//EN" "http://www.w3.org/Graphics/SVG/1.1/DTD/svg11.dtd">
<svg version="1.1" id="Layer_1" xmlns="http://www.w3.org/2000/svg" xmlns:xlink="http://www.w3.org/1999/xlink" x="0px" y="0px"
	 width="32px" height="31.999px" viewBox="0 0 32 31.999" style="enable-background:new 0 0 32 31.999;" xml:space="preserve">
<g id="settings_2_">
	<path style="fill:#FFFFFF;" d="M30.391,12.678l-3.064-0.614c-0.153-0.443-0.336-0.873-0.536-1.289l1.735-2.604
		c0.529-0.793,0.424-1.85-0.25-2.523l-1.924-1.924c-0.387-0.387-0.898-0.586-1.416-0.586c-0.383,0-0.77,0.11-1.107,0.336
		l-2.604,1.735c-0.418-0.202-0.848-0.382-1.291-0.536L19.32,1.608C19.135,0.672,18.312,0,17.359,0h-2.721
		c-0.953,0-1.772,0.673-1.961,1.608l-0.613,3.065c-0.442,0.154-0.873,0.335-1.289,0.536L8.172,3.474
		c-0.34-0.226-0.727-0.336-1.109-0.336c-0.517,0-1.027,0.199-1.415,0.586L3.724,5.648c-0.674,0.674-0.779,1.73-0.25,2.523
		l1.735,2.604c-0.202,0.417-0.382,0.847-0.536,1.29l-3.065,0.613C0.672,12.865,0,13.686,0,14.639v2.721
		c0,0.953,0.673,1.773,1.607,1.961l3.065,0.613c0.154,0.443,0.335,0.873,0.536,1.289l-1.735,2.604
		c-0.529,0.793-0.424,1.851,0.25,2.522l1.924,1.924c0.388,0.388,0.898,0.586,1.415,0.586c0.384,0,0.771-0.109,1.109-0.336
		l2.604-1.734c0.416,0.202,0.847,0.382,1.289,0.536l0.613,3.065c0.188,0.936,1.008,1.607,1.961,1.607h2.721
		c0.953,0,1.775-0.673,1.961-1.607l0.615-3.065c0.443-0.154,0.873-0.335,1.289-0.536l2.604,1.734
		c0.339,0.227,0.726,0.336,1.107,0.336c0.518,0,1.029-0.198,1.416-0.586l1.924-1.924c0.674-0.674,0.779-1.729,0.25-2.522
		l-1.735-2.604c0.202-0.416,0.383-0.847,0.536-1.289l3.064-0.613C31.326,19.134,32,18.313,32,17.36v-2.721
		C32,13.686,31.325,12.864,30.391,12.678z M26.934,17.974c-0.695,0.139-1.264,0.635-1.496,1.303
		c-0.129,0.369-0.279,0.729-0.447,1.076c-0.311,0.638-0.258,1.392,0.136,1.98l1.735,2.604l-1.924,1.924l-2.604-1.734
		c-0.335-0.223-0.722-0.336-1.109-0.336c-0.297,0-0.596,0.066-0.871,0.199c-0.348,0.168-0.705,0.318-1.076,0.447
		c-0.668,0.232-1.164,0.803-1.303,1.496l-0.616,3.066h-2.721l-0.613-3.066c-0.139-0.693-0.635-1.264-1.303-1.496
		c-0.369-0.129-0.729-0.277-1.076-0.446c-0.274-0.134-0.574-0.2-0.871-0.2c-0.389,0-0.774,0.113-1.108,0.336L7.062,26.86
		l-1.924-1.924l1.735-2.604c0.393-0.59,0.443-1.343,0.137-1.98c-0.168-0.347-0.319-0.705-0.448-1.074
		c-0.231-0.67-0.802-1.165-1.496-1.305L2.001,17.36l-0.002-2.721l3.065-0.613c0.694-0.139,1.265-0.635,1.496-1.304
		c0.129-0.369,0.278-0.728,0.447-1.075c0.31-0.638,0.258-1.392-0.136-1.981L5.137,7.062l1.924-1.924l2.604,1.735
		c0.334,0.223,0.721,0.336,1.108,0.336c0.298,0,0.595-0.066,0.871-0.199c0.347-0.168,0.705-0.319,1.074-0.448
		c0.67-0.232,1.166-0.802,1.305-1.496l0.613-3.065l2.722-0.002l0.613,3.066c0.139,0.694,0.635,1.264,1.305,1.496
		c0.369,0.129,0.728,0.278,1.074,0.447c0.277,0.134,0.574,0.2,0.873,0.2c0.389,0,0.774-0.113,1.109-0.336l2.604-1.735l1.924,1.924
		l-1.735,2.604c-0.394,0.59-0.443,1.343-0.138,1.98c0.168,0.347,0.32,0.705,0.449,1.075c0.232,0.669,0.801,1.165,1.496,1.304
		l3.063,0.614l0.003,2.72L26.934,17.974z"/>
	<path style="fill:#FFFFFF;" d="M16,8.999c-3.865,0-7,3.135-7,7s3.135,7,7,7c3.864,0,7-3.135,7-7S19.864,8.999,16,8.999z M16,22.124
		c-3.383,0-6.125-2.743-6.125-6.125S12.617,9.874,16,9.874c3.381,0,6.125,2.743,6.125,6.125S19.381,22.124,16,22.124z"/>
	<path style="fill:#FFFFFF;" d="M16,11.999c-2.211,0-4,1.79-4,4s1.789,4,4,4c2.209,0,4-1.79,4-4S18.209,11.999,16,11.999z
		 M16,18.999c-1.656,0-3-1.344-3-3s1.344-3,3-3s3,1.344,3,3S17.656,18.999,16,18.999z"/>
</g>
</svg>
