<?xml version="1.0" encoding="UTF-8" standalone="no"?>
<svg width="19px" height="20px" viewBox="0 0 19 20" version="1.1" xmlns="http://www.w3.org/2000/svg" xmlns:xlink="http://www.w3.org/1999/xlink" xmlns:sketch="http://www.bohemiancoding.com/sketch/ns">
    <!-- Generator: Sketch 3.1 (8751) - http://www.bohemiancoding.com/sketch -->
    <title>breadcrumbs-icon</title>
    <desc>Created with Sketch.</desc>
    <defs></defs>
    <g id="Welcome" stroke="none" stroke-width="1" fill="none" fill-rule="evenodd" sketch:type="MSPage">
        <g id="Main" sketch:type="MSArtboardGroup" transform="translate(-130.000000, -102.000000)" fill="#FFFFFF">
            <g id="breadcrumb" sketch:type="MSLayerGroup" transform="translate(0.000000, 90.000000)">
                <g id="breadcrumbs-icon" transform="translate(130.000000, 13.000000)" sketch:type="MSShapeGroup">
                    <path d="M17.7736364,7.01215152 L16.0095152,6.65863636 C15.9208485,6.40357576 15.8160606,6.156 15.7009091,5.91648485 L16.6998485,4.41721212 C17.0044242,3.96063636 16.9439697,3.35206061 16.5559091,2.96457576 L15.4481515,1.85681818 C15.2253333,1.634 14.9311212,1.51942424 14.6328788,1.51942424 C14.4123636,1.51942424 14.1895455,1.58275758 13.9955152,1.71287879 L12.4962424,2.71181818 C12.2555758,2.59551515 12.008,2.49187879 11.7529394,2.40321212 L11.4,0.638515152 C11.2929091,0.0996060606 10.8196364,-0.28730303 10.2709394,-0.28730303 L8.70430303,-0.28730303 C8.15560606,-0.28730303 7.68406061,0.100181818 7.57524242,0.638515152 L7.22230303,2.40321212 C6.96781818,2.49187879 6.71966667,2.59609091 6.48015152,2.71181818 L4.98087879,1.71287879 C4.78512121,1.58275758 4.56287879,1.51942424 4.34236364,1.51942424 C4.04469697,1.51942424 3.75106061,1.634 3.52766667,1.85681818 L2.41990909,2.96457576 C2.03184848,3.35263636 1.97139394,3.96063636 2.2759697,4.41721212 L3.27548485,5.91648485 C3.15860606,6.15657576 3.05554545,6.40415152 2.96630303,6.65921212 L1.20160606,7.01215152 C0.66269697,7.11981818 0.276363636,7.59251515 0.276363636,8.14121212 L0.276363636,9.70784848 C0.276363636,10.2565455 0.663272727,10.7292424 1.20160606,10.8369091 L2.96630303,11.1904242 C3.05554545,11.4454848 3.15918182,11.6930606 3.27548485,11.9325758 L2.2759697,13.4318485 C1.97139394,13.8884242 2.03184848,14.497 2.41990909,14.8844848 L3.52766667,15.9922424 C3.75106061,16.2150606 4.04469697,16.3296364 4.34236364,16.3296364 C4.56345455,16.3296364 4.78684848,16.266303 4.98087879,16.1361818 L6.48015152,15.1372424 C6.71966667,15.2535455 6.96781818,15.3571818 7.22230303,15.4458485 L7.57524242,17.2105455 C7.68406061,17.7494545 8.15560606,18.1363636 8.70430303,18.1363636 L10.2709394,18.1363636 C10.8196364,18.1363636 11.2929091,17.7488788 11.4,17.2105455 L11.7540909,15.4458485 C12.0091515,15.3571818 12.2567273,15.2529697 12.4962424,15.1372424 L13.9955152,16.1361818 C14.190697,16.266303 14.4129394,16.3296364 14.6328788,16.3296364 C14.9311212,16.3296364 15.2253333,16.2150606 15.4481515,15.9922424 L16.5559091,14.8844848 C16.9439697,14.4964242 17.0044242,13.8884242 16.6998485,13.4318485 L15.7009091,11.9325758 C15.8172121,11.6924848 15.9208485,11.4449091 16.0095152,11.1898485 L17.7736364,10.8369091 C18.3125455,10.7292424 18.7000303,10.2565455 18.7000303,9.70784848 L18.7000303,8.14121212 C18.7000303,7.59251515 18.3119697,7.11924242 17.7736364,7.01215152 L17.7736364,7.01215152 Z M15.7832424,10.0607879 C15.3830909,10.1408182 15.0554848,10.4263939 14.9219091,10.8115758 C14.8476364,11.0240303 14.7612727,11.2307273 14.6645455,11.4305152 C14.4854848,11.7978485 14.516,12.2319697 14.7422727,12.5710909 L15.7417879,14.0703636 L14.6340303,15.1781212 L13.1353333,14.1791818 C12.9418788,14.0507879 12.7196364,13.9857273 12.4962424,13.9857273 C12.3252424,13.9857273 12.1530909,14.0237273 11.9947576,14.100303 C11.7943939,14.1970303 11.5888485,14.2839697 11.3752424,14.3582424 C10.9906364,14.4918182 10.7050606,14.82 10.6250303,15.2195758 L10.2703636,16.9848485 L8.70372727,16.9848485 L8.35078788,15.2195758 C8.27075758,14.82 7.98518182,14.4918182 7.60057576,14.3582424 C7.38812121,14.2839697 7.18142424,14.1981818 6.98106061,14.1008788 C6.82330303,14.0237273 6.65057576,13.9857273 6.47957576,13.9857273 C6.25560606,13.9857273 6.03336364,14.0507879 5.84163636,14.1791818 L4.34178788,15.1781212 L3.2340303,14.0703636 L4.23354545,12.5710909 C4.45924242,12.2313939 4.48860606,11.7978485 4.31184848,11.4310909 C4.21512121,11.231303 4.12818182,11.0251818 4.05390909,10.8121515 C3.92090909,10.4269697 3.59215152,10.1413939 3.19257576,10.0613636 L1.42845455,9.70784848 L1.42672727,8.14121212 L3.192,7.78827273 C3.59157576,7.70824242 3.92033333,7.42266667 4.05333333,7.03748485 C4.12760606,6.8250303 4.21339394,6.61833333 4.31069697,6.41854545 C4.48918182,6.05121212 4.45924242,5.61709091 4.2329697,5.2779697 L3.23345455,3.77869697 L4.34121212,2.67093939 L5.84106061,3.66987879 C6.03278788,3.79827273 6.25560606,3.86333333 6.479,3.86333333 C6.65057576,3.86333333 6.82157576,3.82533333 6.98048485,3.74875758 C7.18027273,3.6520303 7.38639394,3.56509091 7.59884848,3.49081818 C7.98460606,3.35724242 8.27018182,3.02906061 8.35021212,2.62948485 L8.70315152,0.864787879 L10.2703636,0.863636364 L10.623303,2.62890909 C10.7033333,3.02848485 10.9889091,3.35666667 11.3746667,3.49024242 C11.5871212,3.56451515 11.7932424,3.65030303 11.9930303,3.74760606 C12.1525152,3.82475758 12.3235152,3.86275758 12.4956667,3.86275758 C12.7196364,3.86275758 12.9418788,3.79769697 13.1347576,3.66930303 L14.6334545,2.67036364 L15.7412121,3.77812121 L14.7422727,5.27739394 C14.5154242,5.61709091 14.4866364,6.05063636 14.6628182,6.41739394 C14.7595455,6.61718182 14.8470606,6.82330303 14.9213333,7.03633333 C15.0549091,7.42151515 15.3825152,7.70709091 15.7826667,7.78712121 L17.5467879,8.14063636 L17.5479394,9.70727273 L15.7832424,10.0607879 L15.7832424,10.0607879 Z" id="Fill-1"></path>
                    <path d="M9.48790909,4.89393939 C7.26260606,4.89393939 5.45818182,6.69893939 5.45818182,8.92424242 C5.45818182,11.1495455 7.26260606,12.9545455 9.48790909,12.9545455 C11.7132121,12.9545455 13.5182121,11.1495455 13.5182121,8.92424242 C13.5182121,6.69893939 11.7132121,4.89393939 9.48790909,4.89393939 L9.48790909,4.89393939 Z M9.48790909,12.4507576 C7.54069697,12.4507576 5.96139394,10.8714545 5.96139394,8.92424242 C5.96139394,6.9770303 7.54069697,5.39772727 9.48790909,5.39772727 C11.4345455,5.39772727 13.015,6.9770303 13.015,8.92424242 C13.015,10.8714545 11.4345455,12.4507576 9.48790909,12.4507576 L9.48790909,12.4507576 Z" id="Fill-2"></path>
                    <path d="M9.48790909,6.62121212 C8.21548485,6.62121212 7.18545455,7.65181818 7.18545455,8.92424242 C7.18545455,10.1966667 8.21548485,11.2272727 9.48790909,11.2272727 C10.7603333,11.2272727 11.7909394,10.1966667 11.7909394,8.92424242 C11.7909394,7.65181818 10.7603333,6.62121212 9.48790909,6.62121212 L9.48790909,6.62121212 Z M9.48790909,10.6515152 C8.53445455,10.6515152 7.76063636,9.87769697 7.76063636,8.92424242 C7.76063636,7.97078788 8.53445455,7.1969697 9.48790909,7.1969697 C10.4419394,7.1969697 11.2151818,7.97078788 11.2151818,8.92424242 C11.2151818,9.87769697 10.4419394,10.6515152 9.48790909,10.6515152 L9.48790909,10.6515152 Z" id="Fill-3"></path>
                </g>
            </g>
        </g>
    </g>
</svg>