<?xml version="1.0" encoding="UTF-8" standalone="no"?>
<svg width="46px" height="52px" viewBox="0 0 46 52" version="1.1" xmlns="http://www.w3.org/2000/svg" xmlns:xlink="http://www.w3.org/1999/xlink" xmlns:sketch="http://www.bohemiancoding.com/sketch/ns">
    <!-- Generator: Sketch 3.1 (8751) - http://www.bohemiancoding.com/sketch -->
    <title>footer-logo</title>
    <desc>Created with Sketch.</desc>
    <defs>
        <linearGradient x1="50%" y1="0%" x2="50%" y2="100%" id="linearGradient-1">
            <stop stop-color="#33CCCC" offset="0%"></stop>
            <stop stop-color="#33CC83" offset="100%"></stop>
        </linearGradient>
    </defs>
    <g id="Welcome" stroke="none" stroke-width="1" fill="none" fill-rule="evenodd" sketch:type="MSPage">
        <g id="Clean-Form" sketch:type="MSArtboardGroup" transform="translate(-130.000000, -832.000000)" fill="url(#linearGradient-1)">
            <g id="footer" sketch:type="MSLayerGroup" transform="translate(0.000000, 782.000000)">
                <g id="info-block" transform="translate(130.000000, 51.000000)" sketch:type="MSShapeGroup">
                    <g id="footer-logo">
                        <path d="M44.7560426,11.6169811 L24.1436383,0.145990566 C23.828734,-0.029245283 23.413266,-0.116981132 22.9982872,-0.116981132 C22.5833085,-0.116981132 22.1680851,-0.029245283 21.8529362,0.145990566 L1.24053191,11.6169811 C0.610968085,11.9676887 0.0956702128,12.8278302 0.0956702128,13.5290094 L0.0956702128,36.4709906 C0.0956702128,36.7867925 0.203819149,37.1330189 0.376074468,37.4523585 L0.311723404,37.4882075 C0.253244681,37.5207547 0.233180851,37.5929245 0.267191489,37.6492925 C0.289702128,37.6872642 0.331053191,37.7082547 0.372893617,37.7082547 C0.393691489,37.7082547 0.414734043,37.703066 0.43406383,37.6924528 L0.498414894,37.6566038 C0.699053191,37.9606132 0.956702128,38.2247642 1.24053191,38.3830189 L21.8529362,49.8540094 C22.1680851,50.0292453 22.5833085,50.1169811 22.9982872,50.1169811 C23.413266,50.1169811 23.828734,50.0292453 24.1436383,49.8540094 L44.7560426,38.3830189 C45.3856064,38.0323113 45.9011489,37.1721698 45.9011489,36.4709906 L45.9011489,13.5290094 C45.9011489,12.8278302 45.3856064,11.9676887 44.7560426,11.6169811 L44.7560426,11.6169811 Z M42.0070532,35.5601415 C42.0016702,35.5695755 41.9962872,35.5790094 41.9904149,35.5877358 L23.0149255,46.1478774 C23.0097872,46.1481132 23.0044043,46.1481132 22.9982872,46.1481132 C22.9924149,46.1481132 22.9867872,46.1481132 22.9816489,46.1478774 L4.00615957,35.5877358 C4.00053191,35.5790094 3.99490426,35.5695755 3.98976596,35.5601415 L3.98976596,14.4398585 C3.99490426,14.4304245 4.00053191,14.4212264 4.00615957,14.4122642 L22.9816489,3.85235849 C22.9867872,3.85212264 22.9924149,3.85188679 22.9982872,3.85188679 C23.0044043,3.85188679 23.0097872,3.85212264 23.0149255,3.85235849 L41.9904149,14.4122642 C41.9962872,14.4212264 42.0016702,14.4304245 42.0070532,14.4398585 L42.0070532,35.5601415 L42.0070532,35.5601415 Z" id="Fill-1"></path>
                        <path d="M23.0611702,11.7448113 C23.0225106,11.7233491 22.9740638,11.7233491 22.9354043,11.7448113 L11.1200106,18.3198113 C11.0813511,18.3415094 11.0571277,18.3816038 11.0571277,18.4247642 L11.0571277,31.575 C11.0571277,31.6183962 11.0813511,31.6582547 11.1200106,31.6799528 L22.9354043,38.2551887 C22.954734,38.2660377 22.9767553,38.2714623 22.9982872,38.2714623 C23.0198191,38.2714623 23.0418404,38.2660377 23.0611702,38.2551887 L34.8770532,31.6799528 C34.9157128,31.6582547 34.9399362,31.6183962 34.9399362,31.575 L34.9399362,18.4247642 C34.9399362,18.3816038 34.9157128,18.3415094 34.8770532,18.3198113 L23.0611702,11.7448113 L23.0611702,11.7448113 Z M22.9982872,37.6636792 L11.742234,31.3997642 L22.9977979,25.1360849 L34.2543404,31.4 L22.9982872,37.6636792 L22.9982872,37.6636792 Z M20.4714681,23.457783 L25.524617,23.457783 L22.9982872,24.8639151 L20.4714681,23.457783 L20.4714681,23.457783 Z M34.3769255,31.1957547 L23.2427234,25.0002358 L26.0423617,23.4419811 C26.0905638,23.4153302 26.1140532,23.3608491 26.099617,23.309434 C26.0851809,23.257783 26.036734,23.221934 25.9814362,23.221934 L20.0148936,23.221934 C19.9593511,23.221934 19.9109043,23.257783 19.8964681,23.309434 C19.8822766,23.3608491 19.905766,23.4153302 19.9537234,23.4419811 L22.7533617,25 L11.6201383,31.195283 L11.6201383,18.6681604 L22.9982872,12.3363208 L34.3769255,18.6681604 L34.3769255,31.1957547 L34.3769255,31.1957547 Z" id="Fill-2"></path>
                    </g>
                </g>
            </g>
        </g>
    </g>
</svg>