<?xml version="1.0" encoding="UTF-8" standalone="no"?>
<svg width="64px" height="72px" viewBox="0 0 64 72" version="1.1" xmlns="http://www.w3.org/2000/svg" xmlns:xlink="http://www.w3.org/1999/xlink" xmlns:sketch="http://www.bohemiancoding.com/sketch/ns">
    <!-- Generator: Sketch 3.1 (8751) - http://www.bohemiancoding.com/sketch -->
    <title>form-logo</title>
    <desc>Created with Sketch.</desc>
    <defs>
        <linearGradient x1="50%" y1="0%" x2="50%" y2="100%" id="linearGradient-1">
            <stop stop-color="#33CCCC" offset="0%"></stop>
            <stop stop-color="#33CC83" offset="100%"></stop>
        </linearGradient>
    </defs>
    <g id="Welcome" stroke="none" stroke-width="1" fill="none" fill-rule="evenodd" sketch:type="MSPage">
        <g id="Clean-Form" sketch:type="MSArtboardGroup" transform="translate(-688.000000, -131.000000)" fill="url(#linearGradient-1)">
            <g id="form" sketch:type="MSLayerGroup" transform="translate(530.000000, 0.000000)">
                <g id="form-logo" transform="translate(158.000000, 132.000000)" sketch:type="MSShapeGroup">
                    <path d="M62.2692766,16.2637736 L33.5911489,0.204386792 C33.1530213,-0.0409433962 32.5749787,-0.163773585 31.997617,-0.163773585 C31.4202553,-0.163773585 30.8425532,-0.0409433962 30.4040851,0.204386792 L1.72595745,16.2637736 C0.850042553,16.7547642 0.133106383,17.9589623 0.133106383,18.9406132 L0.133106383,51.0593868 C0.133106383,51.5015094 0.283574468,51.9862264 0.523234043,52.4333019 L0.433702128,52.4834906 C0.352340426,52.5290566 0.324425532,52.6300943 0.371744681,52.7090094 C0.40306383,52.7621698 0.460595745,52.7915566 0.518808511,52.7915566 C0.547744681,52.7915566 0.577021277,52.7842925 0.603914894,52.769434 L0.693446809,52.7192453 C0.972595745,53.1448585 1.33106383,53.5146698 1.72595745,53.7362264 L30.4040851,69.7956132 C30.8425532,70.0409434 31.4202553,70.1637736 31.997617,70.1637736 C32.5749787,70.1637736 33.1530213,70.0409434 33.5911489,69.7956132 L62.2692766,53.7362264 C63.1451915,53.2452358 63.8624681,52.0410377 63.8624681,51.0593868 L63.8624681,18.9406132 C63.8624681,17.9589623 63.1451915,16.7547642 62.2692766,16.2637736 L62.2692766,16.2637736 Z M58.4445957,49.7841981 C58.4371064,49.7974057 58.429617,49.8106132 58.4214468,49.8228302 L32.020766,64.6070283 C32.013617,64.6073585 32.0061277,64.6073585 31.997617,64.6073585 C31.9894468,64.6073585 31.981617,64.6073585 31.9744681,64.6070283 L5.57378723,49.8228302 C5.56595745,49.8106132 5.55812766,49.7974057 5.55097872,49.7841981 L5.55097872,20.2158019 C5.55812766,20.2025943 5.56595745,20.189717 5.57378723,20.1771698 L31.9744681,5.39330189 C31.981617,5.3929717 31.9894468,5.39264151 31.997617,5.39264151 C32.0061277,5.39264151 32.013617,5.3929717 32.020766,5.39330189 L58.4214468,20.1771698 C58.429617,20.189717 58.4371064,20.2025943 58.4445957,20.2158019 L58.4445957,49.7841981 L58.4445957,49.7841981 Z" id="Fill-1"></path>
                    <path d="M32.0851064,16.4427358 C32.0313191,16.4126887 31.9639149,16.4126887 31.9101277,16.4427358 L15.4713191,25.6477358 C15.4175319,25.6781132 15.3838298,25.7342453 15.3838298,25.7946698 L15.3838298,44.205 C15.3838298,44.2657547 15.4175319,44.3215566 15.4713191,44.351934 L31.9101277,53.5572642 C31.9370213,53.5724528 31.9676596,53.5800472 31.997617,53.5800472 C32.0275745,53.5800472 32.0582128,53.5724528 32.0851064,53.5572642 L48.5245957,44.351934 C48.578383,44.3215566 48.6120851,44.2657547 48.6120851,44.205 L48.6120851,25.7946698 C48.6120851,25.7342453 48.578383,25.6781132 48.5245957,25.6477358 L32.0851064,16.4427358 L32.0851064,16.4427358 Z M31.997617,52.7291509 L16.3370213,43.9596698 L31.9969362,35.1905189 L47.6582128,43.96 L31.997617,52.7291509 L31.997617,52.7291509 Z M28.4820426,32.8408962 L35.5125106,32.8408962 L31.997617,34.8094811 L28.4820426,32.8408962 L28.4820426,32.8408962 Z M47.828766,43.6740566 L32.3377021,35.0003302 L36.2328511,32.8187736 C36.2999149,32.7814623 36.3325957,32.7051887 36.3125106,32.6332075 C36.2924255,32.5608962 36.2250213,32.5107075 36.1480851,32.5107075 L27.8468085,32.5107075 C27.7695319,32.5107075 27.7021277,32.5608962 27.6820426,32.6332075 C27.6622979,32.7051887 27.6949787,32.7814623 27.7617021,32.8187736 L31.6568511,35 L16.1671489,43.6733962 L16.1671489,26.1354245 L31.997617,17.2708491 L47.828766,26.1354245 L47.828766,43.6740566 L47.828766,43.6740566 Z" id="Fill-2"></path>
                </g>
            </g>
        </g>
    </g>
</svg>