<?xml version="1.0" encoding="iso-8859-1"?>
<!-- Generator: Adobe Illustrator 16.0.0, SVG Export Plug-In . SVG Version: 6.00 Build 0)  -->
<!DOCTYPE svg PUBLIC "-//W3C//DTD SVG 1.1//EN" "http://www.w3.org/Graphics/SVG/1.1/DTD/svg11.dtd">
<svg version="1.1" id="Layer_1" xmlns="http://www.w3.org/2000/svg" xmlns:xlink="http://www.w3.org/1999/xlink" x="0px" y="0px"
	 width="82.758px" height="82.758px" viewBox="0 0 82.758 82.758" style="enable-background:new 0 0 82.758 82.758;"
	 xml:space="preserve">
<g>
	<path style="fill:none;stroke:#FFFFFF;stroke-linecap:round;stroke-linejoin:round;stroke-miterlimit:10;" d="M70.089,45.517h11.29
		V34.483H70.084c-0.709-2.909-1.915-5.905-3.488-8.483l7.986-7.986l-9.84-9.837l-7.987,7.985c-2.578-1.572-6.928-3.187-8.479-3.489
		V1.379H34.483v11.293c-1.789,0.388-5.906,1.917-8.48,3.489l-7.989-7.985l-9.839,9.837l7.987,7.989
		c-1.573,2.575-3.079,6.777-3.493,8.48H1.379v11.034h11.289c0.564,4.203,1.919,8.664,3.493,11.239l-7.989,7.989l9.841,9.837
		l7.986-7.989c2.578,1.576,7.146,2.766,8.484,3.496v11.29h13.793v-11.29c1.336-0.73,5.905-1.92,8.479-3.491l7.99,7.984l9.837-9.837
		l-7.986-7.989C68.169,54.181,69.359,52.373,70.089,45.517z"/>
	
		<circle style="fill:none;stroke:#FFFFFF;stroke-linecap:round;stroke-linejoin:round;stroke-miterlimit:10;" cx="41.38" cy="41.379" r="15.173"/>
</g>
</svg>
