<?xml version="1.0" encoding="UTF-8" standalone="no"?>
<svg width="73px" height="82px" viewBox="0 0 73 82" version="1.1" xmlns="http://www.w3.org/2000/svg" xmlns:xlink="http://www.w3.org/1999/xlink" xmlns:sketch="http://www.bohemiancoding.com/sketch/ns">
    <!-- Generator: Sketch 3.1 (8751) - http://www.bohemiancoding.com/sketch -->
    <title>introduction-icon</title>
    <desc>Created with Sketch.</desc>
    <defs>
        <linearGradient x1="50%" y1="0%" x2="50%" y2="100%" id="linearGradient-1">
            <stop stop-color="#33CCCC" offset="0%"></stop>
            <stop stop-color="#33CC83" offset="100%"></stop>
        </linearGradient>
    </defs>
    <g id="Welcome" stroke="none" stroke-width="1" fill="none" fill-rule="evenodd" sketch:type="MSPage">
        <g id="Homepage" sketch:type="MSArtboardGroup" transform="translate(-684.000000, -1099.000000)" fill="url(#linearGradient-1)">
            <g id="introduction" sketch:type="MSLayerGroup" transform="translate(320.000000, 1100.000000)">
                <g id="introduction-icon" transform="translate(364.000000, 0.000000)" sketch:type="MSShapeGroup">
                    <path d="M71.0258936,18.5871698 L38.3149043,0.233584906 C37.8151649,-0.0467924528 37.1558351,-0.187169811 36.4972819,-0.187169811 C35.8387287,-0.187169811 35.1797872,-0.0467924528 34.6796596,0.233584906 L1.96867021,18.5871698 C0.969579787,19.1483019 0.151824468,20.5245283 0.151824468,21.6464151 L0.151824468,58.3535849 C0.151824468,58.8588679 0.323452128,59.4128302 0.59681383,59.9237736 L0.494691489,59.9811321 C0.401888298,60.0332075 0.370047872,60.1486792 0.424021277,60.2388679 C0.459744681,60.2996226 0.525367021,60.3332075 0.591765957,60.3332075 C0.624771277,60.3332075 0.658164894,60.3249057 0.688840426,60.3079245 L0.790962766,60.250566 C1.10936702,60.7369811 1.51824468,61.1596226 1.96867021,61.4128302 L34.6796596,79.7664151 C35.1797872,80.0467925 35.8387287,80.1871698 36.4972819,80.1871698 C37.1558351,80.1871698 37.8151649,80.0467925 38.3149043,79.7664151 L71.0258936,61.4128302 C72.024984,60.8516981 72.8431277,59.4754717 72.8431277,58.3535849 L72.8431277,21.6464151 C72.8431277,20.5245283 72.024984,19.1483019 71.0258936,18.5871698 L71.0258936,18.5871698 Z M66.663367,56.8962264 C66.6548245,56.9113208 66.6462819,56.9264151 66.6369628,56.9403774 L36.5236862,73.8366038 C36.5155319,73.8369811 36.5069894,73.8369811 36.4972819,73.8369811 C36.4879628,73.8369811 36.4790319,73.8369811 36.4708777,73.8366038 L6.35760106,56.9403774 C6.34867021,56.9264151 6.33973936,56.9113208 6.33158511,56.8962264 L6.33158511,23.1037736 C6.33973936,23.0886792 6.34867021,23.0739623 6.35760106,23.0596226 L36.4708777,6.16377358 C36.4790319,6.16339623 36.4879628,6.16301887 36.4972819,6.16301887 C36.5069894,6.16301887 36.5155319,6.16339623 36.5236862,6.16377358 L66.6369628,23.0596226 C66.6462819,23.0739623 66.6548245,23.0886792 66.663367,23.1037736 L66.663367,56.8962264 L66.663367,56.8962264 Z" id="Fill-1"></path>
                    <path d="M36.5970745,18.7916981 C36.5357234,18.7573585 36.4588404,18.7573585 36.3974894,18.7916981 L17.6469734,29.3116981 C17.5856223,29.3464151 17.5471809,29.410566 17.5471809,29.4796226 L17.5471809,50.52 C17.5471809,50.589434 17.5856223,50.6532075 17.6469734,50.6879245 L36.3974894,61.2083019 C36.4281649,61.2256604 36.4631117,61.2343396 36.4972819,61.2343396 C36.5314521,61.2343396 36.5663989,61.2256604 36.5970745,61.2083019 L55.348367,50.6879245 C55.4097181,50.6532075 55.4481596,50.589434 55.4481596,50.52 L55.4481596,29.4796226 C55.4481596,29.410566 55.4097181,29.3464151 55.348367,29.3116981 L36.5970745,18.7916981 L36.5970745,18.7916981 Z M36.4972819,60.2618868 L18.6344149,50.2396226 L36.4965053,40.2177358 L54.3601489,50.24 L36.4972819,60.2618868 L36.4972819,60.2618868 Z M32.4873298,37.5324528 L40.5064574,37.5324528 L36.4972819,39.7822642 L32.4873298,37.5324528 L32.4873298,37.5324528 Z M54.5546862,49.9132075 L36.8851915,40.0003774 L41.3280957,37.5071698 C41.4045904,37.4645283 41.441867,37.3773585 41.4189574,37.2950943 C41.3960479,37.2124528 41.3191649,37.1550943 41.2314096,37.1550943 L31.762766,37.1550943 C31.6746223,37.1550943 31.5977394,37.2124528 31.5748298,37.2950943 C31.5523085,37.3773585 31.5895851,37.4645283 31.6656915,37.5071698 L36.1085957,40 L18.4406543,49.9124528 L18.4406543,29.8690566 L36.4972819,19.7381132 L54.5546862,29.8690566 L54.5546862,49.9132075 L54.5546862,49.9132075 Z" id="Fill-2"></path>
                </g>
            </g>
        </g>
    </g>
</svg>