<?xml version="1.0" encoding="UTF-8" standalone="no"?>
<svg width="21px" height="16px" viewBox="0 0 21 16" version="1.1" xmlns="http://www.w3.org/2000/svg" xmlns:xlink="http://www.w3.org/1999/xlink" xmlns:sketch="http://www.bohemiancoding.com/sketch/ns">
    <!-- Generator: Sketch 3.1 (8751) - http://www.bohemiancoding.com/sketch -->
    <title>small-twitter</title>
    <desc>Created with Sketch.</desc>
    <defs></defs>
    <g id="Welcome" stroke="none" stroke-width="1" fill="none" fill-rule="evenodd" sketch:type="MSPage">
        <g id="Clean-Form" sketch:type="MSArtboardGroup" transform="translate(-1235.000000, -869.000000)" fill="#44CCFF">
            <g id="footer" sketch:type="MSLayerGroup" transform="translate(0.000000, 782.000000)">
                <g id="find-us" transform="translate(1235.000000, 61.000000)" sketch:type="MSShapeGroup">
                    <path d="M18.1156222,28.5300824 C18.9626222,28.0301101 19.6133222,27.2385611 19.9197222,26.2953174 C19.1268222,26.7582766 18.2487222,27.0944462 17.3140222,27.2754757 C16.5656222,26.4905222 15.4992222,26 14.3190222,26 C12.0530222,26 10.2157222,27.8084252 10.2157222,30.0391542 C10.2157222,30.3556359 10.2520222,30.6639473 10.3220222,30.9596584 C6.91182222,30.7911306 3.88832222,29.1831275 1.86462222,26.7393763 C1.51142222,27.3359174 1.30902222,28.0297163 1.30902222,28.7699785 C1.30902222,30.1713579 2.03342222,31.4076549 3.13442222,32.13197 C2.46182222,32.1110024 1.82912222,31.9292838 1.27592222,31.6267804 C1.27552222,31.6437119 1.27552222,31.660545 1.27552222,31.677575 C1.27552222,33.6346432 2.68992222,35.2670592 4.56702222,35.6382731 C4.22272222,35.7305106 3.86022222,35.779927 3.48602222,35.779927 C3.22162222,35.779927 2.96452222,35.7545297 2.71402222,35.7074758 C3.23612222,37.312132 4.75152222,38.4800138 6.54702222,38.5124987 C5.14272222,39.5959197 3.37352222,40.2415819 1.45102222,40.2415819 C1.11982222,40.2415819 0.793222222,40.2224847 0.472222222,40.1850779 C2.28812222,41.3312046 4.44492222,42 6.76212222,42 C14.3094222,42 18.4367222,35.8450937 18.4367222,30.5075275 C18.4367222,30.3324043 18.4327222,30.1581671 18.4247222,29.9849142 C19.2265222,29.4154439 19.9221222,28.7040243 20.4722222,27.8940672 C19.7364222,28.2152741 18.9455222,28.4324308 18.1156222,28.5300824 Z" id="small-twitter"></path>
                </g>
            </g>
        </g>
    </g>
</svg>