<?xml version="1.0" encoding="UTF-8" standalone="no"?>
<svg width="18px" height="18px" viewBox="0 0 18 18" version="1.1" xmlns="http://www.w3.org/2000/svg" xmlns:xlink="http://www.w3.org/1999/xlink" xmlns:sketch="http://www.bohemiancoding.com/sketch/ns">
    <!-- Generator: Sketch 3.1 (8751) - http://www.bohemiancoding.com/sketch -->
    <title>small-facebook</title>
    <desc>Created with Sketch.</desc>
    <defs></defs>
    <g id="Welcome" stroke="none" stroke-width="1" fill="none" fill-rule="evenodd" sketch:type="MSPage">
        <g id="Clean-Form" sketch:type="MSArtboardGroup" transform="translate(-1265.000000, -868.000000)" fill="#335599">
            <g id="footer" sketch:type="MSLayerGroup" transform="translate(0.000000, 782.000000)">
                <g id="find-us" transform="translate(1235.000000, 61.000000)" sketch:type="MSShapeGroup">
                    <path d="M39.6144288,43 L39.6144288,36.0295235 L37.2686503,36.0295235 L37.2686503,33.3129282 L39.6144288,33.3129282 L39.6144288,31.3095804 C39.6144288,28.9846311 41.0342708,27.7186768 43.1083517,27.7186768 C44.1017832,27.7186768 44.9556972,27.7926764 45.2045494,27.8256691 L45.2045494,30.255373 L43.7659732,30.2560495 C42.638072,30.2560495 42.4197148,30.7920519 42.4197148,31.5785703 L42.4197148,33.3129282 L45.1097857,33.3129282 L44.7595087,36.0295235 L42.4197148,36.0295235 L42.4197148,43 L39.6144288,43 L39.6144288,43 Z M47.0066206,43 C47.5551675,43 48,42.5551701 48,42.0065743 L48,25.9934778 C48,25.4447258 47.5551675,25 47.0066206,25 L30.9934315,25 C30.4446764,25 30,25.4447258 30,25.9934778 L30,42.0065743 C30,42.5551701 30.4446764,43 30.9934315,43 L47.0066206,43 L47.0066206,43 Z" id="small-facebook"></path>
                </g>
            </g>
        </g>
    </g>
</svg>