<?xml version="1.0" encoding="UTF-8" standalone="no"?>
<svg width="19px" height="18px" viewBox="0 0 19 18" version="1.1" xmlns="http://www.w3.org/2000/svg" xmlns:xlink="http://www.w3.org/1999/xlink" xmlns:sketch="http://www.bohemiancoding.com/sketch/ns">
    <!-- Generator: Sketch 3.1 (8751) - http://www.bohemiancoding.com/sketch -->
    <title>small-google-plus</title>
    <desc>Created with Sketch.</desc>
    <defs></defs>
    <g id="Welcome" stroke="none" stroke-width="1" fill="none" fill-rule="evenodd" sketch:type="MSPage">
        <g id="Clean-Form" sketch:type="MSArtboardGroup" transform="translate(-1292.000000, -868.000000)" fill="#DD4433">
            <g id="footer" sketch:type="MSLayerGroup" transform="translate(0.000000, 782.000000)">
                <g id="find-us" transform="translate(1235.000000, 61.000000)" sketch:type="MSShapeGroup">
                    <g id="small-google-plus" transform="translate(57.000000, 25.000000)">
                        <path d="M5.3204182,14.3517535 C5.14696811,14.3339134 4.94349173,14.325204 4.70949741,14.325204 C4.57074436,14.3073638 4.21538063,14.325204 3.64347645,14.3783031 C3.08007094,14.4579869 2.50381207,14.5861693 1.91466473,14.7633068 C1.77591168,14.816441 1.58093397,14.8960897 1.32969648,15.0024635 C1.07831852,15.1174063 0.822726342,15.2813041 0.562814594,15.4937006 C0.396704262,15.6397934 0.248118043,15.8096614 0.116142857,16.0022511 L0.116142857,16.7420215 C0.116142857,17.436138 0.680110262,18 1.37412134,18 L8.23100133,18 C8.23128228,17.9833187 8.23223048,17.9670238 8.23223048,17.950202 C8.23223048,17.2596326 8.00673482,16.6576319 7.55620006,16.1444457 C7.07950203,15.6573878 6.33435847,15.0599525 5.3204182,14.3517535" id="Fill-1"></path>
                        <path d="M2.92512828,9.45311419 C3.36614594,9.79910129 3.87020125,9.97188413 4.43732931,9.97188413 C5.15385132,9.94536969 5.75083009,9.68812695 6.22858166,9.20022613 C6.45881831,8.85444974 6.60694799,8.49971814 6.67268975,8.13606645 C6.71212779,7.77262547 6.73203996,7.46667342 6.73203996,7.21814005 C6.73203996,6.1450954 6.45758916,5.06309554 5.90868758,3.97217559 C5.65126924,3.44901584 5.31251654,3.02334495 4.89225389,2.6951629 C4.46328186,2.38482104 3.97018351,2.22074758 3.41260767,2.2029074 C2.67494434,2.22074758 2.06156526,2.51781466 1.5728216,3.09428424 C1.16042549,3.69751409 0.963165078,4.37147252 0.981005257,5.11619466 C0.981005257,6.10070566 1.26894154,7.1252166 1.84520041,8.18937628 C2.12397077,8.68598647 2.48411061,9.10730268 2.92512828,9.45311419" id="Fill-2"></path>
                        <path d="M16.9249984,0.107142857 L1.37412134,0.107142857 C0.680110262,0.107142857 0.116142857,0.671075144 0.116142857,1.36512134 L0.116142857,3.05228256 C0.195370111,2.96796313 0.277477078,2.88427583 0.363271485,2.80136114 C1.13700147,2.16434733 1.94103869,1.74840425 2.77513732,1.55363725 C3.60073728,1.3855954 4.37471309,1.30138133 5.09699453,1.30138133 L10.5401808,1.30138133 L8.85913017,2.28255608 L7.18071344,2.28255608 C7.35163501,2.38878943 7.54394371,2.54373209 7.75760444,2.74724359 C7.9625558,2.95964005 8.16357388,3.22081607 8.36023728,3.5305258 C8.54815618,3.82260606 8.71472305,4.16775032 8.86014861,4.56606393 C8.97962162,4.96434242 9.03956883,5.42899481 9.03956883,5.96005622 C9.02337922,6.93375074 8.80848935,7.71246755 8.39486408,8.29662807 C8.19198472,8.57999895 7.97705972,8.84092913 7.75012421,9.07991028 C7.49871113,9.31889142 7.23114356,9.56240285 6.94735125,9.81009337 C6.78513907,9.97834593 6.63514811,10.1685475 6.4974135,10.3809791 C6.33520132,10.6023308 6.25407767,10.8589063 6.25407767,11.1509865 C6.25407767,11.4343574 6.33727331,11.6687732 6.50362947,11.8546201 C6.64491105,12.0317927 6.78222424,12.1865247 6.91539345,12.3192725 L7.83869298,13.0760051 C8.41249355,13.5452229 8.91574113,14.0627988 9.34822501,14.6292948 C9.75588013,15.2045352 9.96806589,15.9569132 9.98464181,16.886253 C9.98464181,17.2703086 9.93487894,17.6414756 9.83612582,18 L16.9249984,18 C17.6190095,18 18.1831525,17.436138 18.1831525,16.7420215 L18.1831525,1.36512134 C18.1831525,0.671075144 17.6190095,0.107142857 16.9249984,0.107142857 L16.9249984,0.107142857 Z M17.9148825,5.65719459 L15.0587681,5.65719459 L15.0587681,8.51327387 L13.6752411,8.51327387 L13.6752411,5.65719459 L10.8191619,5.65719459 L10.8191619,4.2736676 L13.6752411,4.2736676 L13.6752411,1.4175532 L15.0587681,1.4175532 L15.0587681,4.2736676 L17.9148825,4.2736676 L17.9148825,5.65719459 L17.9148825,5.65719459 Z" id="Fill-3"></path>
                        <path d="M4.57797876,13.5830104 C4.38173679,13.3249599 4.20688196,13.0490341 4.05337915,12.7553033 C3.87413452,12.4707033 3.78472291,12.1280173 3.78472291,11.7274561 C3.78472291,11.4872458 3.8187527,11.2868599 3.88702299,11.1267197 C3.9467595,10.9576594 4.00214132,10.8020846 4.05337915,10.6597495 C3.74409085,10.6952542 3.45264272,10.7128837 3.17882406,10.7128837 C1.88172361,10.6971155 0.860864994,10.3298466 0.116142857,9.61163893 L0.116142857,14.4643433 C0.781602622,14.1594097 1.47094294,13.9449413 2.18416382,13.8215701 C3.14500498,13.6800778 3.94300182,13.6008154 4.57797876,13.5830104" id="Fill-4"></path>
                    </g>
                </g>
            </g>
        </g>
    </g>
</svg>