<?xml version="1.0" encoding="UTF-8" standalone="no"?>
<svg width="40px" height="46px" viewBox="0 0 40 46" version="1.1" xmlns="http://www.w3.org/2000/svg" xmlns:xlink="http://www.w3.org/1999/xlink" xmlns:sketch="http://www.bohemiancoding.com/sketch/ns">
    <!-- Generator: Sketch 3.1 (8751) - http://www.bohemiancoding.com/sketch -->
    <title>top-logo</title>
    <desc>Created with Sketch.</desc>
    <defs>
        <path id="path-1" d="M0.0630638298,5.66684579 L9.81347872,-0.0391121495 L19.5643085,5.66684579 L19.5643085,17.078972 L9.81347872,22.7851402 L0.0630638298,17.078972 L0.0630638298,5.66684579 L0.0630638298,5.66684579 Z"></path>
    </defs>
    <g id="Welcome" stroke="none" stroke-width="1" fill="none" fill-rule="evenodd" sketch:type="MSPage">
        <g id="Homepage" sketch:type="MSArtboardGroup" transform="translate(-129.000000, -21.000000)">
            <g id="header" sketch:type="MSLayerGroup">
                <g id="top-logo" transform="translate(130.000000, 22.000000)">
                    <path d="M19.3560319,2.0163785 C19.3614255,2.0163785 19.3664043,2.01658879 19.3711755,2.01679907 L36.6840638,12.1487383 C36.68925,12.1573598 36.6944362,12.1664019 36.699,12.1752336 L36.699,32.439743 C36.6944362,32.448785 36.68925,32.4578271 36.6840638,32.4664486 L19.3711755,42.5983879 C19.3664043,42.5985981 19.3614255,42.5988084 19.3560319,42.5988084 C19.3504309,42.5988084 19.3454521,42.5985981 19.3406809,42.5983879 L2.02779255,32.4664486 C2.02260638,32.4578271 2.01762766,32.448785 2.01285638,32.439743 L2.01285638,12.1752336 C2.01762766,12.1664019 2.02260638,12.1573598 2.02779255,12.1487383 L19.3406809,2.01679907 C19.3454521,2.01658879 19.3504309,2.0163785 19.3560319,2.0163785 M19.3560319,-0.0864252336 C19.0039947,-0.0864252336 18.6519574,-0.00820093458 18.3849734,0.148037383 L0.909239362,10.3754439 C0.375478723,10.6881308 -0.0616117021,11.4550234 -0.0616117021,12.0801869 L-0.0616117021,32.535 C-0.0616117021,33.1601636 0.375478723,33.9270561 0.909239362,34.239743 L18.3849734,44.4671495 C18.6519574,44.6233879 19.0039947,44.7016121 19.3560319,44.7016121 C19.7078617,44.7016121 20.0598989,44.6233879 20.326883,44.4671495 L37.8028245,34.239743 C38.3365851,33.9270561 38.7734681,33.1601636 38.7734681,32.535 L38.7734681,12.0801869 C38.7734681,11.4550234 38.3365851,10.6881308 37.8028245,10.3754439 L20.326883,0.148037383 C20.0598989,-0.00820093458 19.7078617,-0.0864252336 19.3560319,-0.0864252336" id="Fill-1" fill="#FFFFFF" sketch:type="MSShapeGroup"></path>
                    <g id="Group-4" transform="translate(9.542553, 10.934579)">
                        <mask id="mask-2" sketch:name="Clip 3" fill="white">
                            <use xlink:href="#path-1"></use>
                        </mask>
                        <g id="Clip-3"></g>
                        <path d="M28.9954628,22.5984112 L9.81306383,11.373014 L-9.36892021,22.5984112 L28.9954628,22.5984112 Z M7.28387234,9.89285047 L9.81347872,11.373014 L12.3424628,9.89285047 L7.28387234,9.89285047 L7.28387234,9.89285047 Z" id="Stroke-2" stroke="#FFFFFF" stroke-linecap="round" stroke-linejoin="round" sketch:type="MSShapeGroup" mask="url(#mask-2)"></path>
                    </g>
                    <path d="M9.60561702,16.6014252 L19.3560319,10.8954673 L29.1068617,16.6014252 L29.1068617,28.0135514 L19.3560319,33.7197196 L9.60561702,28.0135514 L9.60561702,16.6014252 L9.60561702,16.6014252 Z" id="Stroke-5" stroke="#FFFFFF" stroke-linecap="round" stroke-linejoin="round" sketch:type="MSShapeGroup"></path>
                </g>
            </g>
        </g>
    </g>
</svg>