<?xml version="1.0" encoding="UTF-8" standalone="no"?>
<svg width="30px" height="21px" viewBox="0 0 30 21" version="1.1" xmlns="http://www.w3.org/2000/svg" xmlns:xlink="http://www.w3.org/1999/xlink" xmlns:sketch="http://www.bohemiancoding.com/sketch/ns">
    <!-- Generator: Sketch 3.1 (8751) - http://www.bohemiancoding.com/sketch -->
    <title>white-youtube-tile-icon</title>
    <desc>Created with Sketch.</desc>
    <defs></defs>
    <g id="Welcome" stroke="none" stroke-width="1" fill="none" fill-rule="evenodd" sketch:type="MSPage">
        <g id="Main" sketch:type="MSArtboardGroup" transform="translate(-661.000000, -2570.000000)" fill="#FFFFFF">
            <g id="wall" sketch:type="MSLayerGroup" transform="translate(0.000000, 1566.000000)">
                <g id="socials" transform="translate(523.333333, 780.296875)" sketch:type="MSShapeGroup">
                    <g id="youtube" transform="translate(0.000000, 195.074219)">
                        <path d="M166.39021,33.4694582 C166.39021,33.4694582 166.111562,31.5581777 165.256577,30.7165126 C164.172192,29.6118153 162.956704,29.6063575 162.399297,29.5416788 C158.408802,29.2611328 152.42285,29.2611328 152.42285,29.2611328 L152.410455,29.2611328 C152.410455,29.2611328 146.424643,29.2611328 142.434009,29.5416788 C141.876573,29.6063575 140.661504,29.6118153 139.576728,30.7165126 C138.721744,31.5581777 138.443514,33.4694582 138.443514,33.4694582 C138.443514,33.4694582 138.158333,35.7139075 138.158333,37.958384 L138.158333,40.0625602 C138.158333,42.3069824 138.443514,44.5514316 138.443514,44.5514316 C138.443514,44.5514316 138.721744,46.4627394 139.576728,47.3044045 C140.661504,48.4090746 142.08646,48.3741557 142.721088,48.4899366 C145.00248,48.7027084 152.416681,48.7685547 152.416681,48.7685547 C152.416681,48.7685547 158.408802,48.7597571 162.399297,48.4792111 C162.956704,48.4145595 164.172192,48.4090746 165.256577,47.3044045 C166.111562,46.4627394 166.39021,44.5514316 166.39021,44.5514316 C166.39021,44.5514316 166.675,42.3069824 166.675,40.0625602 L166.675,37.958384 C166.675,35.7139075 166.39021,33.4694582 166.39021,33.4694582 L166.39021,33.4694582 Z M149.472659,42.6124278 L149.471347,34.8194839 L157.176675,38.7295324 L149.472659,42.6124278 L149.472659,42.6124278 Z" id="white-youtube-tile-icon"></path>
                    </g>
                </g>
            </g>
        </g>
    </g>
</svg>