<?xml version="1.0" encoding="UTF-8" standalone="no"?>
<svg width="25px" height="21px" viewBox="0 0 25 21" version="1.1" xmlns="http://www.w3.org/2000/svg" xmlns:xlink="http://www.w3.org/1999/xlink" xmlns:sketch="http://www.bohemiancoding.com/sketch/ns">
    <!-- Generator: Sketch 3.1 (8751) - http://www.bohemiancoding.com/sketch -->
    <title>white-twitter-tile-icon</title>
    <desc>Created with Sketch.</desc>
    <defs></defs>
    <g id="Welcome" stroke="none" stroke-width="1" fill="none" fill-rule="evenodd" sketch:type="MSPage">
        <g id="Main" sketch:type="MSArtboardGroup" transform="translate(-664.000000, -2375.000000)" fill="#FFFFFF">
            <g id="wall" sketch:type="MSLayerGroup" transform="translate(0.000000, 1566.000000)">
                <g id="socials" transform="translate(523.333333, 780.296875)" sketch:type="MSShapeGroup">
                    <g id="twitter">
                        <path d="M162.303346,32.3458443 C163.34445,31.7362712 164.144269,30.7712036 164.520885,29.6211878 C163.546279,30.1856341 162.466948,30.5954968 161.318046,30.8162105 C160.398137,29.8591842 159.087354,29.2611328 157.636692,29.2611328 C154.8514,29.2611328 152.593052,31.4659898 152.593052,34.1857256 C152.593052,34.5715846 152.637671,34.947482 152.723712,35.3080171 C148.532008,35.1025457 144.815623,33.142046 142.328158,30.1625906 C141.894017,30.8899018 141.645233,31.7357911 141.645233,32.638329 C141.645233,34.3469102 142.535642,35.8542206 143.888954,36.7373156 C143.062217,36.7117517 142.284523,36.4901978 141.604548,36.1213815 C141.604056,36.1420246 141.604056,36.1625478 141.604056,36.1833109 C141.604056,38.5693957 143.34259,40.5596599 145.649858,41.0122491 C145.226656,41.1247063 144.781083,41.1849555 144.321129,41.1849555 C143.996137,41.1849555 143.680119,41.1539907 143.372212,41.096622 C144.01396,43.053041 145.87664,44.4769387 148.083608,44.5165447 C146.35749,45.8374666 144.182848,46.624667 141.819775,46.624667 C141.412675,46.624667 141.011229,46.6013834 140.616667,46.5557764 C142.84871,47.95315 145.499777,48.7685547 148.348002,48.7685547 C157.624892,48.7685547 162.698031,41.2644076 162.698031,34.7567729 C162.698031,34.5432602 162.693115,34.3308278 162.683281,34.1195955 C163.668827,33.4252893 164.523835,32.5579168 165.2,31.5704058 C164.295579,31.9620257 163.323431,32.2267861 162.303346,32.3458443 Z" id="white-twitter-tile-icon"></path>
                    </g>
                </g>
            </g>
        </g>
    </g>
</svg>