<?xml version="1.0" encoding="UTF-8" standalone="no"?>
<svg width="21px" height="20px" viewBox="0 0 21 20" version="1.1" xmlns="http://www.w3.org/2000/svg" xmlns:xlink="http://www.w3.org/1999/xlink" xmlns:sketch="http://www.bohemiancoding.com/sketch/ns">
    <!-- Generator: Sketch 3.1 (8751) - http://www.bohemiancoding.com/sketch -->
    <title>white-google-plus</title>
    <desc>Created with Sketch.</desc>
    <defs></defs>
    <g id="Welcome" stroke="none" stroke-width="1" fill="none" fill-rule="evenodd" sketch:type="MSPage">
        <g id="Clean-Form" sketch:type="MSArtboardGroup" transform="translate(-585.000000, -647.000000)" fill="#FFFFFF">
            <g id="form" sketch:type="MSLayerGroup" transform="translate(530.000000, 0.000000)">
                <g id="social" transform="translate(50.000000, 563.000000)" sketch:type="MSShapeGroup">
                    <g id="g+" transform="translate(0.000000, 79.000000)">
                        <g id="white-google-plus" transform="translate(5.000000, 5.000000)">
                            <path d="M5.91157577,15.9463928 C5.71885345,15.9265704 5.49276859,15.9168933 5.2327749,15.9168933 C5.07860484,15.8970709 4.68375625,15.9168933 4.04830716,15.9758923 C3.42230104,16.0644299 2.78201341,16.2068548 2.12740525,16.4036742 C1.9732352,16.4627123 1.7565933,16.5512108 1.47744053,16.6694039 C1.19813169,16.7971181 0.91414038,16.9792268 0.625349549,17.2152229 C0.440782513,17.3775482 0.275686714,17.5662905 0.129047619,17.780279 L0.129047619,18.6022461 C0.129047619,19.3734866 0.755678069,20 1.52680149,20 L9.14555704,20 C9.1458692,19.9814653 9.14692275,19.9633597 9.14692275,19.9446689 C9.14692275,19.1773695 8.89637203,18.5084798 8.39577784,17.9382731 C7.86611337,17.3970975 7.03817608,16.7332805 5.91157577,15.9463928" id="Fill-1"></path>
                            <path d="M3.25014253,10.5034602 C3.74016216,10.8878903 4.30022361,11.0798713 4.9303659,11.0798713 C5.72650147,11.0504108 6.38981121,10.7645855 6.92064629,10.2224735 C7.17646479,9.83827749 7.34105332,9.44413127 7.41409972,9.04007384 C7.45791976,8.63625053 7.48004439,8.2963038 7.48004439,8.02015561 C7.48004439,6.82788378 7.17509907,5.62566171 6.56520842,4.41352844 C6.27918805,3.83223982 5.90279616,3.35927216 5.43583766,2.99462545 C4.95920207,2.64980116 4.41131501,2.46749731 3.7917863,2.44767489 C2.97216038,2.46749731 2.29062807,2.79757185 1.74757956,3.4380936 C1.28936165,4.10834899 1.07018342,4.85719169 1.09000584,5.68466073 C1.09000584,6.77856185 1.40993504,7.91690733 2.05022267,9.09930698 C2.35996752,9.65109608 2.7601229,10.1192252 3.25014253,10.5034602" id="Fill-2"></path>
                            <path d="M18.8055538,0.119047619 L1.52680149,0.119047619 C0.755678069,0.119047619 0.129047619,0.745639049 0.129047619,1.51680149 L0.129047619,3.39142507 C0.217077901,3.29773681 0.308307865,3.20475092 0.403634983,3.11262349 C1.26333497,2.40483037 2.15670966,1.94267139 3.08348591,1.72626361 C4.0008192,1.53955045 4.86079233,1.44597925 5.66332726,1.44597925 L11.711312,1.44597925 L9.84347797,2.53617342 L7.97857049,2.53617342 C8.16848334,2.65421048 8.38215968,2.82636899 8.61956049,3.05249287 C8.84728422,3.28848895 9.07063765,3.57868452 9.28915253,3.92280644 C9.49795131,4.24734006 9.68302561,4.63083368 9.84460956,5.07340436 C9.97735735,5.51593603 10.0439654,6.03221646 10.0439654,6.62228469 C10.0259769,7.70416748 9.78721038,8.56940838 9.32762676,9.21847563 C9.10220524,9.53333217 8.86339969,9.82325459 8.61124912,10.0887892 C8.33190126,10.3543238 8.03460395,10.6248921 7.71927917,10.9001037 C7.53904341,11.087051 7.37238679,11.2983861 7.21934833,11.5344212 C7.03911258,11.7803675 6.94897519,12.0654514 6.94897519,12.389985 C6.94897519,12.7048416 7.04141479,12.9653035 7.22625497,13.1718001 C7.3832345,13.3686586 7.53580471,13.540583 7.6837705,13.6880805 L8.70965886,14.5288946 C9.34721506,15.0502477 9.90637904,15.625332 10.3869167,16.254772 C10.8398668,16.893928 11.0756288,17.7299035 11.0940465,18.7625034 C11.0940465,19.1892317 11.0387544,19.6016396 10.9290287,20 L18.8055538,20 C19.5766772,20 20.2035027,19.3734866 20.2035027,18.6022461 L20.2035027,1.51680149 C20.2035027,0.745639049 19.5766772,0.119047619 18.8055538,0.119047619 L18.8055538,0.119047619 Z M19.905425,6.28577177 L16.7319646,6.28577177 L16.7319646,9.45919319 L15.1947124,9.45919319 L15.1947124,6.28577177 L12.0212909,6.28577177 L12.0212909,4.74851956 L15.1947124,4.74851956 L15.1947124,1.57505911 L16.7319646,1.57505911 L16.7319646,4.74851956 L19.905425,4.74851956 L19.905425,6.28577177 L19.905425,6.28577177 Z" id="Fill-3"></path>
                            <path d="M5.08664307,15.0922337 C4.86859643,14.805511 4.67431329,14.4989268 4.50375461,14.1725592 C4.30459391,13.856337 4.20524768,13.4755748 4.20524768,13.0305068 C4.20524768,12.7636065 4.24305855,12.5409554 4.31891444,12.3630219 C4.38528833,12.1751771 4.44682368,12.0023162 4.50375461,11.8441661 C4.16010094,11.8836158 3.83626969,11.9032041 3.53202673,11.9032041 C2.09080401,11.8856839 0.95651666,11.4776074 0.129047619,10.6795988 L0.129047619,16.0714926 C0.868447357,15.7326775 1.63438105,15.4943792 2.42684868,15.3573001 C3.49444997,15.2000865 4.38111314,15.1120172 5.08664307,15.0922337" id="Fill-4"></path>
                        </g>
                    </g>
                </g>
            </g>
        </g>
    </g>
</svg>