<?xml version="1.0" encoding="UTF-8" standalone="no"?>
<svg width="21px" height="20px" viewBox="0 0 21 20" version="1.1" xmlns="http://www.w3.org/2000/svg" xmlns:xlink="http://www.w3.org/1999/xlink" xmlns:sketch="http://www.bohemiancoding.com/sketch/ns">
    <!-- Generator: Sketch 3.1 (8751) - http://www.bohemiancoding.com/sketch -->
    <title>white-facebook-tile-icon</title>
    <desc>Created with Sketch.</desc>
    <defs></defs>
    <g id="Welcome" stroke="none" stroke-width="1" fill="none" fill-rule="evenodd" sketch:type="MSPage">
        <g id="Main" sketch:type="MSArtboardGroup" transform="translate(-862.000000, -2378.000000)" fill="#FFFFFF">
            <g id="wall" sketch:type="MSLayerGroup" transform="translate(0.000000, 1566.000000)">
                <g id="socials" transform="translate(523.333333, 780.296875)" sketch:type="MSShapeGroup">
                    <g id="facebook" transform="translate(196.666667, 0.000000)">
                        <path d="M153.087987,51.694668 L153.087987,44.1404443 L150.525007,44.1404443 L150.525007,41.196346 L153.087987,41.196346 L153.087987,39.0252265 C153.087987,36.5055728 154.639296,35.1336003 156.905421,35.1336003 C157.990837,35.1336003 158.923817,35.213797 159.195711,35.2495528 L159.195711,37.8827338 L157.623934,37.883467 C156.391597,37.883467 156.153022,38.4643572 156.153022,39.3167431 L156.153022,41.196346 L159.092173,41.196346 L158.709463,44.1404443 L156.153022,44.1404443 L156.153022,51.694668 L153.087987,51.694668 L153.087987,51.694668 Z M161.164641,51.694668 C161.763979,51.694668 162.25,51.2125855 162.25,50.6180471 L162.25,33.2639233 C162.25,32.6692158 161.763979,32.1872461 161.164641,32.1872461 L143.668749,32.1872461 C143.069183,32.1872461 142.583333,32.6692158 142.583333,33.2639233 L142.583333,50.6180471 C142.583333,51.2125855 143.069183,51.694668 143.668749,51.694668 L161.164641,51.694668 L161.164641,51.694668 Z" id="white-facebook-tile-icon"></path>
                    </g>
                </g>
            </g>
        </g>
    </g>
</svg>