<?xml version="1.0" encoding="UTF-8" standalone="no"?>
<svg width="20px" height="20px" viewBox="0 0 20 20" version="1.1" xmlns="http://www.w3.org/2000/svg" xmlns:xlink="http://www.w3.org/1999/xlink" xmlns:sketch="http://www.bohemiancoding.com/sketch/ns">
    <!-- Generator: Sketch 3.1 (8751) - http://www.bohemiancoding.com/sketch -->
    <title>white-facebook</title>
    <desc>Created with Sketch.</desc>
    <defs></defs>
    <g id="Welcome" stroke="none" stroke-width="1" fill="none" fill-rule="evenodd" sketch:type="MSPage">
        <g id="Clean-Form" sketch:type="MSArtboardGroup" transform="translate(-585.000000, -607.000000)" fill="#FFFFFF">
            <g id="form" sketch:type="MSLayerGroup" transform="translate(530.000000, 0.000000)">
                <g id="social" transform="translate(50.000000, 563.000000)" sketch:type="MSShapeGroup">
                    <g id="fb" transform="translate(0.000000, 39.000000)">
                        <path d="M15.6826986,25 L15.6826986,17.2550261 L13.0762781,17.2550261 L13.0762781,14.2365869 L15.6826986,14.2365869 L15.6826986,12.0106449 C15.6826986,9.42736792 17.2603009,8.02075202 19.5648353,8.02075202 C20.668648,8.02075202 21.6174413,8.10297374 21.8939438,8.13963237 L21.8939438,10.8393034 L20.2955258,10.840055 C19.0423022,10.840055 18.7996831,11.4356132 18.7996831,12.3095226 L18.7996831,14.2365869 L21.7886508,14.2365869 L21.3994542,17.2550261 L18.7996831,17.2550261 L18.7996831,25 L15.6826986,25 L15.6826986,25 Z M23.8962451,25 C24.5057417,25 25,24.5057445 25,23.8961936 L25,6.10386419 C25,5.49413982 24.5057417,5 23.8962451,5 L6.10381275,5 C5.49408486,5 5,5.49413982 5,6.10386419 L5,23.8961936 C5,24.5057445 5.49408486,25 6.10381275,25 L23.8962451,25 L23.8962451,25 Z" id="white-facebook"></path>
                    </g>
                </g>
            </g>
        </g>
    </g>
</svg>