<?xml version="1.0" encoding="UTF-8" standalone="no"?>
<svg width="41px" height="47px" viewBox="0 0 41 47" version="1.1" xmlns="http://www.w3.org/2000/svg" xmlns:xlink="http://www.w3.org/1999/xlink" xmlns:sketch="http://www.bohemiancoding.com/sketch/ns">
    <!-- Generator: Sketch 3.1 (8751) - http://www.bohemiancoding.com/sketch -->
    <title>top-logo-white</title>
    <desc>Created with Sketch.</desc>
    <defs></defs>
    <g id="Welcome" stroke="none" stroke-width="1" fill="none" fill-rule="evenodd" sketch:type="MSPage">
        <g id="Main" sketch:type="MSArtboardGroup" transform="translate(-129.000000, -23.000000)" fill="#FFFFFF">
            <g id="header" sketch:type="MSLayerGroup">
                <g id="top-menu" sketch:type="MSShapeGroup">
                    <g id="top-logo-white" transform="translate(129.000000, 24.000000)">
                        <path d="M39.8912553,10.455283 L21.5193298,0.131391509 C21.2386543,-0.0263207547 20.8683457,-0.105283019 20.4984734,-0.105283019 C20.1286011,-0.105283019 19.7585106,-0.0263207547 19.477617,0.131391509 L1.10569149,10.455283 C0.544558511,10.7709198 0.0852712766,11.5450472 0.0852712766,12.1761085 L0.0852712766,32.8238915 C0.0852712766,33.1081132 0.181664894,33.419717 0.335196809,33.7071226 L0.277840426,33.7393868 C0.225718085,33.7686792 0.207835106,33.8336321 0.238148936,33.8843632 C0.258212766,33.9185377 0.295069149,33.9374292 0.332361702,33.9374292 C0.350898936,33.9374292 0.369654255,33.9327594 0.386882979,33.9232075 L0.444239362,33.8909434 C0.623069149,34.1645519 0.852712766,34.4022877 1.10569149,34.544717 L19.477617,44.8686085 C19.7585106,45.0263208 20.1286011,45.105283 20.4984734,45.105283 C20.8683457,45.105283 21.2386543,45.0263208 21.5193298,44.8686085 L39.8912553,34.544717 C40.4523883,34.2290802 40.9118936,33.4549528 40.9118936,32.8238915 L40.9118936,12.1761085 C40.9118936,11.5450472 40.4523883,10.7709198 39.8912553,10.455283 L39.8912553,10.455283 Z M37.4410691,32.0041274 C37.4362713,32.0126179 37.4314734,32.0211085 37.4262394,32.0289623 L20.5133032,41.5330896 C20.5087234,41.5333019 20.5039255,41.5333019 20.4984734,41.5333019 C20.4932394,41.5333019 20.4882234,41.5333019 20.4836436,41.5330896 L3.57070745,32.0289623 C3.56569149,32.0211085 3.56067553,32.0126179 3.55609574,32.0041274 L3.55609574,12.9958726 C3.56067553,12.9873821 3.56569149,12.9791038 3.57070745,12.9710377 L20.4836436,3.46712264 C20.4882234,3.46691038 20.4932394,3.46669811 20.4984734,3.46669811 C20.5039255,3.46669811 20.5087234,3.46691038 20.5133032,3.46712264 L37.4262394,12.9710377 C37.4314734,12.9791038 37.4362713,12.9873821 37.4410691,12.9958726 L37.4410691,32.0041274 L37.4410691,32.0041274 Z" id="Fill-1"></path>
                        <path d="M20.5545213,10.5703302 C20.5200638,10.5510142 20.476883,10.5510142 20.4424255,10.5703302 L9.91131383,16.4878302 C9.87685638,16.5073585 9.85526596,16.5434434 9.85526596,16.5822877 L9.85526596,28.4175 C9.85526596,28.4565566 9.87685638,28.4924292 9.91131383,28.5119575 L20.4424255,34.4296698 C20.4596543,34.439434 20.4792819,34.444316 20.4984734,34.444316 C20.5176649,34.444316 20.5372926,34.439434 20.5545213,34.4296698 L31.0860691,28.5119575 C31.1205266,28.4924292 31.142117,28.4565566 31.142117,28.4175 L31.142117,16.5822877 C31.142117,16.5434434 31.1205266,16.5073585 31.0860691,16.4878302 L20.5545213,10.5703302 L20.5545213,10.5703302 Z M20.4984734,33.8973113 L10.4659043,28.2597877 L20.4980372,22.6224764 L30.5310426,28.26 L20.4984734,33.8973113 L20.4984734,33.8973113 Z M18.2463085,21.1120047 L22.7502021,21.1120047 L20.4984734,22.3775236 L18.2463085,21.1120047 L18.2463085,21.1120047 Z M30.6403032,28.0761792 L20.7163404,22.5002123 L23.2116702,21.097783 C23.254633,21.0737972 23.2755691,21.0247642 23.2627021,20.9784906 C23.2498351,20.9320047 23.2066543,20.8997406 23.157367,20.8997406 L17.8393617,20.8997406 C17.7898564,20.8997406 17.7466755,20.9320047 17.7338085,20.9784906 C17.7211596,21.0247642 17.7420957,21.0737972 17.7848404,21.097783 L20.2801702,22.5 L10.3570798,28.0757547 L10.3570798,16.8013443 L20.4984734,11.1026887 L30.6403032,16.8013443 L30.6403032,28.0761792 L30.6403032,28.0761792 Z" id="Fill-2"></path>
                    </g>
                </g>
            </g>
        </g>
    </g>
</svg>